<?xml version="1.0" encoding="UTF-8"?>
<svg id="Layer_2" data-name="Layer 2" xmlns="http://www.w3.org/2000/svg" viewBox="0 0 366.01 228.86">
  <defs>
    <style>
      .cls-1 {
        fill: #6a00ff;
        stroke-width: 0px;
      }
    </style>
  </defs>
  <g id="Layer_1-2" data-name="Layer 1">
    <path class="cls-1" d="m279.17,3.76h-44.83l-19.01,48.1c-4.44-6.92-9.65-13.29-15.63-19.1-10.66-10.34-23.04-18.39-37.15-24.14C148.44,2.88,133.13,0,116.62,0s-32.19,2.88-46.4,8.62c-14.21,5.75-26.54,13.8-36.99,24.14-10.45,10.35-18.6,22.42-24.45,36.21C2.92,82.77,0,97.81,0,114.12s2.92,31.09,8.78,44.98c5.85,13.91,14.11,26.08,24.77,36.53,10.65,10.45,23.09,18.6,37.3,24.45,14.21,5.85,29.68,8.78,46.4,8.78,10.79,0,21.05-1.25,30.76-3.76,5.16-1.31,10.16-2.99,15.01-5.02,14-5.85,26.23-13.95,36.68-24.3.67-.66,1.32-1.33,1.97-2,2.61-2.71,5.07-5.55,7.37-8.5h90.25l14.36,39.82h52.36L279.17,3.76ZM116.62,183.71c-9.82,0-18.76-1.61-26.8-4.86-8.05-3.23-15-7.94-20.85-14.1-5.85-6.17-10.35-13.53-13.48-22.1-3.14-8.57-4.7-18.08-4.7-28.53,0-13.8,2.71-25.87,8.15-36.21,5.43-10.35,13.11-18.39,23.04-24.14,9.92-5.75,21.48-8.62,34.64-8.62,9.61,0,18.5,1.62,26.65,4.86,8.15,3.24,15.15,7.94,21,14.1,5.85,6.17,10.35,13.48,13.49,21.95,3.13,8.46,4.7,17.82,4.7,28.06,0,13.79-2.78,25.91-8.31,36.36-5.54,10.46-13.22,18.61-23.04,24.46-9.83,5.85-21.32,8.77-34.49,8.77Zm112.4-38.56c.89-3.32,1.63-6.7,2.21-10.14l25.26-68.4,28.33,78.54h-55.8Z"/>
  </g>
</svg>